<?xml version="1.0" encoding="utf-8"?>
<!-- Generator: Adobe Illustrator 23.0.2, SVG Export Plug-In . SVG Version: 6.00 Build 0)  -->
<svg version="1.1" id="Layer_1" xmlns="http://www.w3.org/2000/svg" xmlns:xlink="http://www.w3.org/1999/xlink" x="0px" y="0px"
	 viewBox="0 0 432.2 295.8" style="enable-background:new 0 0 432.2 295.8;" xml:space="preserve">
<style type="text/css">
	.st0{opacity:0.56;fill:#EDF5FE;}
	.st1{fill:#2C488C;}
	.st2{fill:#FF9F97;}
	.st3{fill:#FF928B;}
	.st4{fill:#EB7B74;}
	.st5{fill:#FFFFFF;}
	.st6{fill:#74472B;}
	.st7{fill:#4A130C;}
	.st8{fill:#FFD390;}
	.st9{fill:#49B4C2;}
	.st10{fill:#42A3AF;}
	.st11{fill:#1E546A;}
	.st12{fill:#F2BC76;}
	.st13{fill:#B9D2BC;}
	.st14{fill:#D2DFD3;}
	.st15{fill:url(#SVGID_1_);}
	.st16{fill:#F4E8E5;}
	.st17{fill:url(#SVGID_2_);}
	.st18{fill:#DCDADA;}
	.st19{fill:#C27748;}
	.st20{fill:#EC2929;}
	.st21{fill:#9BBBA0;}
	.st22{fill:#9EB0C3;}
	.st23{filter:url(#Adobe_OpacityMaskFilter);}
	.st24{filter:url(#Adobe_OpacityMaskFilter_1_);}
	.st25{mask:url(#SVGID_3_);fill:url(#SVGID_4_);}
	.st26{fill:url(#SVGID_5_);}
	.st27{filter:url(#Adobe_OpacityMaskFilter_2_);}
	.st28{filter:url(#Adobe_OpacityMaskFilter_3_);}
	.st29{mask:url(#SVGID_6_);fill:url(#SVGID_7_);}
	.st30{fill:url(#SVGID_8_);}
	.st31{fill:#EDF5FE;}
	.st32{filter:url(#Adobe_OpacityMaskFilter_4_);}
	.st33{filter:url(#Adobe_OpacityMaskFilter_5_);}
	.st34{mask:url(#SVGID_9_);fill:url(#SVGID_10_);}
	.st35{fill:url(#SVGID_11_);}
	.st36{fill:#F3F3F3;}
	.st37{fill:#CAA3A6;}
	.st38{filter:url(#Adobe_OpacityMaskFilter_6_);}
	.st39{filter:url(#Adobe_OpacityMaskFilter_7_);}
	.st40{mask:url(#SVGID_12_);fill:url(#SVGID_13_);}
	.st41{fill:url(#SVGID_14_);}
	.st42{fill:#AD6A40;}
</style>
<g>
	<path class="st0" d="M34.5,295.8c0,0-55.9-121-25.4-188.7c28.7-63.7,97.5-58.8,163.6-44.2c66.1,14.6,70.8-77.5,194.5-58.8
		c64.6,13.2,70.2,98.5,62.4,170.6c-4.7,43.6-33,121.1-33,121.1L34.5,295.8z"/>
	<rect x="382" y="195.8" class="st1" width="34.9" height="0.4"/>
	<rect x="391.7" y="205.1" class="st1" width="34.9" height="0.4"/>
	<rect x="403.4" y="196" class="st1" width="0.4" height="9.3"/>
	<polygon class="st2" points="298.3,74.6 293.5,68.4 287.3,75.1 293.4,80.1 	"/>
	<path class="st2" d="M293.8,68.9c-0.3-1.6-4.7-7.1-4.7-7.1s-11.2-5.3-11.3-3.2c-0.1,2.2,4,3.9,4.1,3.8c0.1-0.1-3.8,9.3-1.8,10.7
		c2,1.4,6.7,2.7,8.5,2.1C290.4,74.7,294.1,70.5,293.8,68.9z"/>
	<path class="st2" d="M282.9,60.4c0,0-14-6-15-3.5c-1,2.5,7.2,3.9,8.9,4.8c1.8,0.9,5.6,3.6,5.6,3.6C283,64.2,283,62.3,282.9,60.4z"
		/>
	<path class="st3" d="M280.3,64.3c0.7-0.1,2.4-0.9,2-2.3l4,1.2c-1.2,3.3,0.6,8.1,1.3,7.8c-2,0.2-3.6,0.2-5.1,1.5
		C282.5,72.5,277.5,66.7,280.3,64.3z"/>
	<path class="st2" d="M279.1,62.4c0,0-3.1-0.8-3.6,1.1c-0.6,1.9,3.8,4.3,6.3,4.1c1-0.1,1.3-0.9,1-1.5c-0.5-0.9-2.3-1.8-2.3-1.8
		l0.2-0.5L279.1,62.4z"/>
	<path class="st2" d="M280.4,65.6c0,0-4.8-0.5-5.1,1.4c-0.3,1.9,4.5,3.6,6.9,3.1c1.7-0.9-0.6-2.9-0.6-2.9L280.4,65.6z"/>
	<path class="st2" d="M281.6,68.5c0,0-4.8-0.5-5.1,1.4c-0.3,1.9,4.5,3.6,6.9,3.1c1.4-1.4-0.6-3-0.6-3L281.6,68.5z"/>
	<path class="st4" d="M288.5,72.2c-4-2.5-2.8-7.8-2.5-8.9c-1.1-0.3-6.1-1.7-7.2-2.6c-1.3-1-1.2-2.1-1.1-2.1l0.4,0c0,0-0.1,0.9,1,1.8
		c1.1,0.9,7.2,2.5,7.3,2.5l0.2,0.1l-0.1,0.2c0,0.1-1.9,6,2.3,8.6L288.5,72.2z"/>
	<path class="st4" d="M281.4,67.7c-2,0-5.1-2.1-5.3-2.2l0.2-0.3c1.3,0.9,5,3,6,1.8c0.2-0.2,0.2-0.4,0.1-0.6
		c-0.3-1.1-3.1-2.3-4.1-2.7l0.1-0.4c0.2,0.1,4,1.5,4.4,3c0.1,0.3,0,0.7-0.2,1C282.4,67.6,282,67.7,281.4,67.7z"/>
	<path class="st4" d="M281.3,70.4c-1.7,0-4.2-1.1-4.5-1.2l0.2-0.4c1.2,0.6,4.7,1.8,5.4,0.9c0.2-0.3,0.3-0.5,0.3-0.8
		c-0.1-0.5-0.8-1-1-1.1l0.2-0.3c0,0,1.1,0.6,1.2,1.4c0.1,0.4,0,0.8-0.3,1.1C282.4,70.3,281.9,70.4,281.3,70.4z"/>
	<path class="st4" d="M281.5,73c-1.1,0-2.1-0.3-2.2-0.3l0.1-0.4c1,0.3,3.7,0.6,4-0.5c0.1-0.4,0.1-0.7-0.1-1
		c-0.3-0.5-1.1-0.6-1.1-0.6l0.1-0.4c0,0,0.9,0.1,1.4,0.8c0.2,0.4,0.3,0.8,0.2,1.3C283.5,72.8,282.5,73,281.5,73z"/>
	<polygon class="st2" points="291.9,251.7 299.2,263 306.6,261 306.6,253.1 299.8,239.3 	"/>
	<polygon class="st5" points="292,292.9 298.4,292.8 257.3,116.7 250.9,116.8 	"/>
	<path class="st6" d="M291.9,293.1l0-0.2l-41.2-176.3l6.8-0.1l0,0.2L298.7,293L291.9,293.1z M251.2,117l41,175.7l6-0.1l-41-175.7
		L251.2,117z"/>
	<polygon class="st6" points="290.6,292.9 297.1,292.8 256,116.7 249.5,116.8 	"/>
	<polygon class="st5" points="347.4,292.8 353.9,292.8 312.7,116.7 306.3,116.8 	"/>
	<path class="st6" d="M354.1,293l-6.9,0l0-0.2L306,116.6l6.8-0.1l0,0.2L354.1,293z M347.6,292.6l6,0l-41-175.7l-6,0.1L347.6,292.6z"
		/>
	<polygon class="st6" points="346,292.9 352.5,292.8 311.4,116.7 304.9,116.8 	"/>
	<polygon class="st7" points="312.6,116.8 306.5,116.8 304.6,116.8 306.5,123.4 314.5,123.4 	"/>
	<polygon class="st7" points="257.2,116.8 251.1,116.8 249.1,116.8 251.1,123.4 259.1,123.4 	"/>
	<polygon class="st8" points="303.6,292.7 278.8,292.8 278.8,290.2 294.1,282.6 296.4,258.7 303.6,258.7 305.5,250.8 318.5,255.1 	
		"/>
	<path class="st9" d="M253.5,186.2l38.5,65.5l13.9-14.6c0,0-17.2-53.4-25.4-60C272.2,170.4,253.5,186.2,253.5,186.2z"/>
	<path class="st10" d="M280.4,177c-8.2-6.6-26.9,9.1-26.9,9.1l7.6,13c0-4.7,0.4-12.7,2.9-16.3c2.5-3.6,13.5-1.9,20.4-0.5
		C282.9,179.9,281.6,178,280.4,177z"/>
	<path class="st10" d="M305.8,237.1c0,0-17.2-53.4-25.4-60c-4.6-3.7-12.6-0.4-18.7,3.3c0,0,8.7-1.9,18.2,8.4
		c9.6,10.4,20.5,39.6,23.7,50.6L305.8,237.1z"/>
	<polygon class="st11" points="296.1,240.2 265.7,179.6 266.4,179.5 296.5,240.1 	"/>
	<path class="st12" d="M309.3,252.1c-0.8,5.6-1.9,17.5,2.7,18.5c0.2,0,0.3,0,0.5,0l6.1-15.5L309.3,252.1z"/>
	<path class="st13" d="M38,228.4c0,0,8.2-10.3-5.3-34.4c-13.6-24.1-21.9-34-20.7-49.1c1.2-15.1,5.8-22.5,5.8-22.5s0,18.5,9.9,34.8
		c9.9,16.3,21.2,51.8,16.9,66.5C40.1,238.5,38,228.4,38,228.4z"/>
	<path class="st13" d="M66.3,222.3c0,0,16.2-23.3,12.1-51.5c-4.1-28.2-2.4-38.5-2.4-38.5s-12,25.8-10.3,52.2
		c1.7,26.4-7.2,37.6-7.2,37.6L66.3,222.3z"/>
	<path class="st5" d="M62.7,222.4l-0.3-0.2c8-13.2,9.6-38.3,8.7-52c-0.9-14.9,4.7-37.7,4.7-37.9l0.4,0.1c-0.1,0.2-5.7,22.9-4.7,37.8
		C72.3,183.9,70.7,209.2,62.7,222.4z"/>
	<path class="st14" d="M65.1,225c0,0,7.5-12.7,4.1-38.8c-3.4-26-9.6-42.1-8.2-57.7c1.3-15.6,10.3-30.5,10.3-30.5
		s-21.4,13.5-22.1,54.5c-0.7,41,0.4,63.7-1.7,68.9C45.4,226.7,65.1,225,65.1,225z"/>
	<path class="st5" d="M43.3,221.5c-0.9-17.3-9.2-34.8-16.6-50.3c-2.6-5.5-5.1-10.7-7-15.4c-6.9-17.4-2.3-33.2-2.2-33.3l0.4,0.1
		c0,0.2-4.7,15.8,2.2,33.1c1.9,4.7,4.3,9.9,6.9,15.4c7.3,15.5,15.7,33.1,16.6,50.4L43.3,221.5z"/>
	<path class="st5" d="M67.6,219.3l-0.4-0.1c6-21-1.5-52.9-1.6-53.3l0.4-0.1C66.1,166.2,73.6,198.2,67.6,219.3z"/>
	<path class="st14" d="M42,226.7c0,0,2.8-18.9-4.3-41.4c-7.1-22.5-16.1-44.5-12.5-69.7c3.6-25.2,17.4-39.9,17.4-39.9
		s-2.2,14.6,1.5,30.4c3.7,15.7,10.9,31.5,12,69.7c1.1,38.2-8.6,50.9-8.6,50.9H42z"/>
	<path class="st14" d="M61.7,222.1c1.1-14.2,12-23.3,23.3-32.2c0,0-11,19-10.6,30.3C74.8,231.5,61.7,222.1,61.7,222.1z"/>
	<path class="st5" d="M42.4,219.3c0-0.2-0.8-15.4-2.4-24.9c-1.6-9.4-9.4-31.2-9.8-32.1l-0.1-0.2l0.2-0.1l0.3,0.1l-0.2,0.1l0.2-0.1
		c0.3,0.9,8.2,22.7,9.8,32.1c1.6,9.5,2.4,24.7,2.4,24.9L42.4,219.3z"/>
	<path class="st5" d="M53.9,219.3l-0.4-0.1c0-0.2,3.7-16.6,2.4-43.5c-1.3-26.8-4.8-42.3-4.8-42.4l0.4-0.1c0,0.2,3.6,15.6,4.8,42.5
		C57.6,202.6,53.9,219.2,53.9,219.3z"/>
	<path class="st5" d="M47.7,221.5l-0.4-0.1c2.8-16.1-4.7-60-9.7-89c-0.8-4.4-1.5-8.5-2-12.1c-4.3-26.2,6.8-44.6,6.9-44.7l0.3,0.2
		c-0.1,0.2-11.2,18.5-6.8,44.5c0.6,3.5,1.3,7.7,2,12.1C42.9,161.4,50.4,205.3,47.7,221.5z"/>
	<path class="st5" d="M54,224.3l-0.4-0.1c7.8-21.8,5.7-50.9,4.2-72.2c-0.6-8.6-1.1-16-0.9-21.5C57.5,111.2,71,98,71.1,97.9l0.3,0.3
		c-0.1,0.1-13.5,13.2-14.1,32.4c-0.2,5.5,0.3,12.9,0.9,21.4C59.7,173.3,61.8,202.5,54,224.3z"/>
	<path class="st12" d="M299.7,92.3c-0.1,0.4,11.5,22.3,21.1,20.7c9.6-1.6,26.9-26.7,26.9-26.7l-11-17.3L299.7,92.3z"/>
	<path class="st7" d="M309.5,4.1c0,0,1.6,9.3,9.9,10.6c8.3,1.3,2-4.4,2-4.4L309.5,4.1z"/>
	<path class="st7" d="M316.4,27.2c-0.6,0-1.2-0.4-1.7-1.1c-0.6-0.8-1.1-1.9-1.5-3.2c-0.3-1.3-0.4-2.5-0.2-3.5
		c0.2-1.1,0.6-1.7,1.3-1.9c0.6-0.2,1.3,0.2,2,1.1c0.6,0.8,1.1,1.9,1.5,3.2c0.3,1.3,0.4,2.5,0.2,3.5c-0.2,1.1-0.6,1.7-1.3,1.9
		C316.5,27.2,316.4,27.2,316.4,27.2z M314.5,17.9c-0.1,0-0.1,0-0.2,0c-0.5,0.1-0.8,0.7-1,1.6c-0.2,0.9-0.1,2.1,0.2,3.3
		c0.3,1.2,0.8,2.3,1.4,3.1c0.5,0.7,1.1,1,1.6,0.9c0.5-0.1,0.8-0.7,1-1.6c0.2-0.9,0.1-2.1-0.2-3.3v0c-0.3-1.2-0.8-2.3-1.4-3.1
		C315.5,18.2,315,17.9,314.5,17.9z"/>
	<path class="st2" d="M331.6,40.2l-2.8-3c0,0-3.6,4.2-8,2.7c-4.5-1.5-3.8-9.7-3.8-9.7s-3.4-0.2-3.6-1.2c-0.3-1.1,3.6-4.7,4.2-8.4
		c0,0-1-1-1.2-2.3C316.1,17,317,0.7,329.2,7.1s13,21.4,13,21.4l-3.9,8.2L331.6,40.2z"/>
	<path class="st4" d="M334.8,26.9c0,0-1.6,3.5-0.1,8.3c1.5,4.8,4.3-2.4,4.3-2.4L334.8,26.9z"/>
	<path class="st4" d="M318.8,20l1.5,3l1,0.3l2-1.8C322.1,19.8,320.6,19.2,318.8,20z"/>
	<path class="st12" d="M330.1,44.5c0,0-0.8,0.8-1.2-1.1c-0.4-2,4.2-10.4,12.4-9.7c8.2,0.7,11.6,10.7,11.6,10.7L330.1,44.5z"/>
	<path class="st7" d="M321.1,26.9c-0.6,0-1.2-0.4-1.7-1.1c-0.6-0.8-1.1-1.9-1.5-3.2c-0.3-1.3-0.4-2.5-0.2-3.5
		c0.2-1.1,0.6-1.7,1.3-1.9c1.3-0.3,2.8,1.6,3.5,4.3v0c0.7,2.7,0.2,5.1-1.1,5.4C321.2,26.9,321.1,26.9,321.1,26.9z M319.2,17.6
		c-0.1,0-0.1,0-0.2,0c-0.5,0.1-0.8,0.7-1,1.6c-0.2,0.9-0.1,2.1,0.2,3.3c0.3,1.2,0.8,2.3,1.4,3.1c0.5,0.7,1.1,1,1.6,0.9
		c1-0.3,1.4-2.5,0.8-4.9C321.5,19.4,320.2,17.6,319.2,17.6z"/>
	<path class="st7" d="M321.3,22.4c0.2,0.7,0,1.3-0.3,1.4c-0.3,0.1-0.8-0.4-0.9-1.1c-0.2-0.7,0-1.3,0.3-1.4
		C320.7,21.3,321.2,21.8,321.3,22.4z"/>
	<path class="st4" d="M333.3,19.7v-6.3l-14.9-4.1l-0.3,0.5c-0.5,0.9-0.8,2-1.1,3c0.9,0.7,3,1.9,7.3,2.4
		C330.4,15.8,333.3,19.7,333.3,19.7z"/>
	<rect x="322" y="19" transform="matrix(0.9712 -0.2383 0.2383 0.9712 4.898 78.8186)" class="st7" width="12.9" height="0.4"/>
	<path class="st7" d="M332.3,18.4c0,0-0.8-2.8-2.8-4.3c-1.9-1.5-7.6,1-13.3-2.6s-7.5-8-6.8-10.2c0.7-2.2,9.8,2.5,15.9,1.7
		c6.1-0.9,10.6-4.6,14.4-2.2c3.8,2.4,2.5,5.8,2.5,5.8s5.6-1,8.7,3.5c3.1,4.4,1.6,9.6,5,13.9s8.5,6.4,8.5,6.4l-25.6,9.1
		c0,0-3.6-4.3-3.8-9.9C334.9,23.9,332.3,18.4,332.3,18.4z"/>
	<path class="st2" d="M338.2,20.7c0.8,3.1-0.3,5.9-3.7,5.8c-2.2,0.6-4.5-0.8-5.1-3.1c-0.6-2.3,0.6-4.5,2.9-5.1
		C334.5,17.5,337.5,17.7,338.2,20.7z"/>
	<path class="st12" d="M301.6,76.4l-4.9-5.8c0,0-1.5-1.1-3.6,0.9c-2.1,2.1-2.4,6.8-2.4,6.8l5.2,7L301.6,76.4z"/>
	<path class="st8" d="M306.4,100.2c0,0-12.2-6.6-12-15.7c0.2-9.1,7.4-10.8,10.1-8.3c2.7,2.5,8.5,8.1,8.5,8.1L306.4,100.2z"/>
	<path class="st7" d="M217.2,110.8l-60.6,0.3l-13-35.8c-0.4-1,0.4-2.2,1.5-2.2l57.2-0.3c0.7,0,1.3,0.4,1.5,1.1L217.2,110.8z"/>
	<linearGradient id="SVGID_1_" gradientUnits="userSpaceOnUse" x1="199.2482" y1="65.5301" x2="171.0876" y2="107.067">
		<stop  offset="0" style="stop-color:#49B4C2"/>
		<stop  offset="1" style="stop-color:#FFFFFF"/>
	</linearGradient>
	<polygon class="st15" points="214.8,110.8 158.7,111.1 145.9,76 202,75.7 	"/>
	<polygon class="st5" points="173,110.9 158.8,110.9 175.2,75.8 189.4,75.8 	"/>
	<path class="st16" d="M230,112.8h-71.4c-1.2,0-2.2-1-2.2-2.2v-0.1H230V112.8z"/>
	<polygon class="st16" points="229.2,95.3 212.3,113 245.9,113 	"/>
	<g>
		<rect x="81" y="200.2" class="st1" width="34.9" height="0.4"/>
		<rect x="89.9" y="209.5" class="st1" width="34.9" height="0.4"/>
		<rect x="101.6" y="200.4" class="st1" width="0.4" height="9.3"/>
	</g>
	<polygon class="st7" points="229.2,95.3 234.9,113 245.9,113 	"/>
	<polygon class="st16" points="293.3,116.6 249.3,117 229,95.1 273.5,95.3 	"/>
	<path class="st7" d="M273.4,94.6h-40.3l-4-2.6v1.8c0,0.5,0.2,1.1,0.6,1.5l20.1,21.6h44.4L273.4,94.6z"/>
	<path class="st5" d="M290.4,113h-41.5c-0.3,0-0.6-0.1-0.8-0.3l-18.8-20.2c-0.6-0.7-0.1-1.7,0.8-1.7h41.5c0.3,0,0.6,0.1,0.8,0.3
		l18.8,20.2C291.8,111.9,291.3,113,290.4,113z"/>
	<linearGradient id="SVGID_2_" gradientUnits="userSpaceOnUse" x1="269.066" y1="87.331" x2="255.2843" y2="113.1122">
		<stop  offset="0" style="stop-color:#49B4C2"/>
		<stop  offset="1" style="stop-color:#FFFFFF"/>
	</linearGradient>
	<polygon class="st17" points="291,113 250,113 230.9,92.1 271.8,92.1 	"/>
	<polygon class="st6" points="159.9,292.9 153.5,292.8 194.6,116.7 201.1,116.8 	"/>
	<polygon class="st6" points="99.8,292.9 93.3,292.8 134.5,116.7 140.9,116.8 	"/>
	<polygon class="st5" points="158.5,292.9 152,292.8 193.2,116.7 199.6,116.8 	"/>
	<path class="st6" d="M158.6,292.9l-6.8,0.1l0.1-0.2L193,116.5l6.8,0.1l-0.1,0.2L158.6,292.9z M152.3,292.6l6,0.1l41-175.7l-6-0.1
		L152.3,292.6z"/>
	<polygon class="st5" points="98.3,292.9 91.9,292.8 133,116.7 139.5,116.8 	"/>
	<path class="st6" d="M98.5,292.8l-6.8,0.1l0.1-0.2l41.2-176.2l6.8,0.1l-0.1,0.2L98.5,292.8z M92.1,292.6l6,0.1l41-175.7l-6-0.1
		L92.1,292.6z"/>
	<polygon class="st6" points="191.6,123.4 198.1,123.4 199.6,116.8 198.1,116.8 193.1,116.8 	"/>
	<polygon class="st6" points="131.5,123.4 137.9,123.4 139.5,116.8 137.9,116.8 133,116.8 	"/>
	<path class="st8" d="M339.4,117.5c0,0-8.9-0.7-9.9-5.4c-0.9-4.7,1.1-16.7,0-20.6c-1.1-3.9-6.8-5-7-12.7c-0.3-7.7-2.2-28.2,1.1-33.6
		c3.2-5.4,40.8-5.3,47.1-1.6c6.4,3.7,0.4,23.6,2.9,32.6c2.5,9,8.7,21.4,8.7,29.5c0,8.1-6.1,9.8-6.1,9.8L339.4,117.5z"/>
	<path class="st12" d="M376.2,115.4c0,0,2.8-0.8,4.6-3.9c-8.3,4.6-2.9-2.2-6.6-2.8c-3.6-0.6-5.1,4.8-10.3,5
		c-5.3,0.2-5.2-4.8-9.6-4.5c-4.3,0.3-2.1,4.6-6.5,5.3c-4.4,0.8-5.5-4.8-9.6-4.6c-4.1,0.2,3.1,4.4-0.9,5.4c-4,1-8-4.5-8.1-4.5
		c0,0.5,0.1,0.9,0.2,1.3c0.9,4.7,9.9,5.4,9.9,5.4L376.2,115.4z"/>
	<polygon class="st5" points="187.9,110.7 179.6,110.7 196,75.6 204.2,75.6 	"/>
	<polygon class="st2" points="210.8,255.4 205.3,277.4 218.6,278.1 227,252.3 	"/>
	<path class="st9" d="M376.2,115.4l3.8,7.1c4.7,6.4,10,17.1,6.1,31.4c-6.2,22.6-118.3,23.4-124,26.6c-5.7,3.2-5,18.4-10,33.6
		c-5,15.2-22.3,41.9-22.3,41.9l-19.1-0.6c0,0,15-74.4,33.2-94.5c18.3-20.1,92.6-37.3,92.6-37.3l-0.9-6.9L376.2,115.4z"/>
	<path class="st10" d="M248.5,174.7c0,0,7.4,6.3,3.6,27.4c-3.7,21.1-32.3,53.5-32.3,53.5l10.1,0.3c3.7-5.8,18-28.8,22.3-41.9
		c5-15.2,4.2-30.4,10-33.6c0.3-0.2,0.8-0.3,1.6-0.5c0.1-1.2,0.1-1.8,0.1-1.8L248.5,174.7z"/>
	<path class="st10" d="M385.3,141.8c0,0-18,2.5-40.9,10.8c-22.9,8.4-27.4,14.7-61,18.7c-33.6,4-28.3,0.7-34,1
		c-5.8,0.4,3.3,5.4,12.5,8.4c0.1-0.1,0.2-0.1,0.3-0.2c5-2.8,90.6-3.8,116.7-18.9L385.3,141.8z"/>
	<path class="st8" d="M206.6,271.9l-38,17.6l2,3.3h57v-3.7l-7.4-16.1c0,0-11.5,4.3-11.5,4.1S206.6,271.9,206.6,271.9z"/>
	<path class="st18" d="M251.2,100l3-28.6L251.2,100z"/>
	<path class="st7" d="M251.2,100.7C251.2,100.7,251.1,100.7,251.2,100.7c-0.5-0.1-0.8-0.4-0.8-0.9l3-28.6c0-0.4,0.4-0.7,0.9-0.7
		c0.4,0,0.7,0.4,0.7,0.9l-3,28.6C251.9,100.4,251.6,100.7,251.2,100.7z"/>
	<path class="st10" d="M380,122.5l-0.4-0.8l-37.7-0.3l-0.1-2.2l35-2.8l0,0l-0.6-1l-40.4,1.3l0.9,6.7l43.5-0.6
		C380.1,122.7,380.1,122.6,380,122.5z"/>
	<rect x="102.9" y="112.8" class="st19" width="223.5" height="4.4"/>
	<path class="st12" d="M227.6,289.2l-4.6-10.1c-1.8,0.3-3.7,0.8-5.8,1.4c-8.5,2.7-13.4,10.7-13.5,11c-0.1,0.2,14.4,0.2,23.9,0.1
		V289.2z"/>
	<rect x="203.3" y="112.8" class="st6" width="123" height="4.4"/>
	<path class="st2" d="M268,98.7c0,0-5.6-4.7-7.6-7c-2-2.3-2.7-3.4-3.9-3.2c-1.1,0.2-7.7,4.7-8.4,5.8s0.4,2.2,0.4,2.2
		s-0.8,0.9-0.8,1.8c0.1,0.9,1.4,1.8,1.4,1.8s-0.8,0.8-0.7,1.5c0.1,0.8,0.8,1.4,0.8,1.4s-1.1,0.7,0.2,1.9c1.3,1.2,6,1.2,6,1.2
		s3.3,3.3,7.4,3.1c4.1-0.3,5.2-0.9,5.2-0.9V98.7z"/>
	<path class="st4" d="M268,108.2v-9.2l-0.5-0.6c-1.9,2.9-2.8,4.9-2.3,8C265.7,109.5,268,108.2,268,108.2z"/>
	<path class="st12" d="M275.7,97.8h-8.1c-1.3,3.4-1,7.3,0,11.2l8.1,0.9V97.8z"/>
	<path class="st8" d="M177.1,99.9c0,0.8-0.6,1.4-1.4,1.4c-0.8,0-1.4-0.6-1.4-1.4c0-0.8,0.6-1.4,1.4-1.4
		C176.4,98.5,177.1,99.1,177.1,99.9z"/>
	<path class="st20" d="M182.1,99.9c0,0.8-0.6,1.4-1.4,1.4c-0.8,0-1.4-0.6-1.4-1.4c0-0.8,0.6-1.4,1.4-1.4
		C181.5,98.5,182.1,99.1,182.1,99.9z"/>
	<path class="st21" d="M187.2,99.9c0,0.8-0.6,1.4-1.4,1.4c-0.8,0-1.4-0.6-1.4-1.4c0-0.8,0.6-1.4,1.4-1.4
		C186.6,98.5,187.2,99.1,187.2,99.9z"/>
	<path class="st11" d="M361.3,147.7l-10.4-5.9l0.1-0.2c1.8-5.2,2.3-9.6,1.6-14.7l0-0.2l0.2,0c0.1,0,11.2-0.1,17.4-0.6l0.1,0l0.1,0.1
		c1.9,4.6,2.1,9.6,0.7,16.3l0,0.1l-0.1,0L361.3,147.7z M351.5,141.6l9.9,5.7l9.4-4.9c1.3-6.5,1.1-11.4-0.6-15.8
		c-5.7,0.4-15.4,0.5-17,0.6C353.7,132.1,353.2,136.5,351.5,141.6z"/>
	
		<rect x="286.3" y="239.5" transform="matrix(0.7376 -0.6753 0.6753 0.7376 -84.0096 263.302)" class="st11" width="20.9" height="0.4"/>
	<path class="st11" d="M387.5,144.2c0-0.1,0-0.3,0-0.4c-2.7,0.9-6.6-0.7-7.3-1.1c0.7-4.6-0.4-10.1-3.3-16.6l4.7-0.6l0.3-0.1
		c-0.1-0.1-0.1-0.2-0.2-0.3l-5.4,0.7l0.1,0.2c3,6.7,4.1,12.2,3.4,16.8l0,0.1l0.1,0.1c0.2,0.1,3,1.5,5.8,1.5
		C386.2,144.4,386.9,144.3,387.5,144.2z"/>
	<path class="st11" d="M223,251.2l-0.4-0.1c0.2-0.6,22.5-61.3,23.9-65.4c0.8-2.5,2.3-3.8,3.7-4.9c1-0.9,1.9-1.6,2.3-2.7
		c0.4-1.2-1.3-2-2.8-2.7c-1.2-0.5-2.1-1-2.3-1.6c-0.1-0.2,0-0.5,0.2-0.7c0.8-1,2.4-0.3,3.9,0.4c1.3,0.6,2.7,1.3,3.4,0.6
		c0.1-0.1,0.1-0.2,0.1-0.3c0-0.7-1.3-1.9-2.5-3.1c-1.5-1.5-2.9-2.8-2.8-3.9c0-0.3,0.3-0.6,0.6-0.8c1.6-0.8,3.6,1.2,5.3,3
		c1.3,1.4,2.6,2.8,3.3,2.3c0.8-0.5,0-2-0.7-3.5c-0.8-1.6-1.6-3.3-0.7-4.1c0.4-0.4,0.8-0.6,1.2-0.5c0.6,0.1,1.1,0.7,1.7,1.6
		c0.4,0.6,0.8,1.2,1.4,1.8c0.1,0.1,0.4,0.2,0.9,0.2c6.6,0,44.6-11.1,65.7-23.3c22.1-12.9,18.8-20,18.8-20.1l0.3-0.2
		c0.2,0.3,3.5,7.5-18.9,20.6c-20,11.7-58,23.4-65.8,23.4c-0.7,0-1.1-0.1-1.3-0.3c-0.6-0.6-1.1-1.3-1.5-1.9c-0.5-0.8-0.9-1.4-1.4-1.4
		c-0.2,0-0.5,0.1-0.9,0.4c-0.7,0.6,0,2.2,0.8,3.7c0.8,1.6,1.6,3.3,0.6,4c-1,0.7-2.3-0.7-3.8-2.4c-1.6-1.7-3.5-3.6-4.8-2.9
		c-0.3,0.1-0.4,0.3-0.4,0.5c-0.1,0.8,1.4,2.3,2.7,3.5c1.3,1.3,2.6,2.5,2.6,3.4c0,0.2-0.1,0.4-0.3,0.6c-0.9,0.8-2.4,0.1-3.8-0.6
		c-1.4-0.7-2.8-1.3-3.4-0.5c-0.2,0.2-0.1,0.3-0.1,0.4c0.1,0.4,1.1,0.9,2.1,1.3c1.7,0.8,3.6,1.6,3,3.2c-0.4,1.2-1.4,2-2.4,2.8
		c-1.3,1.1-2.8,2.4-3.6,4.8C245.6,189.9,223.3,250.5,223,251.2z"/>
	
		<rect x="221.9" y="240.9" transform="matrix(0.127 -0.9919 0.9919 0.127 -55.1569 439.517)" class="st11" width="0.4" height="20.3"/>
	<path class="st12" d="M356.7,90.4c-0.9-3.2-0.2-10,0.5-17.3c0.6-6,1.2-12.1,0.9-16.3c-0.3-4.7-3.1-8.9-5.5-11.6
		c-2.5-2.9-5-4.7-5-4.8l0.2-0.3c0,0,2.5,1.9,5.1,4.8c2.4,2.7,5.2,7,5.6,11.8c0.3,4.2-0.3,10.4-0.9,16.4c-0.7,7.2-1.4,14.1-0.5,17.2
		L356.7,90.4z"/>
	<rect x="127.6" y="166.9" class="st6" width="53.7" height="1.2"/>
	<rect x="237.5" y="271" class="st1" width="34.9" height="0.4"/>
	<rect x="246.4" y="280.3" class="st1" width="34.9" height="0.4"/>
	<rect x="258.1" y="271.2" class="st1" width="0.4" height="9.3"/>
	<rect x="46.9" y="63" class="st1" width="34.9" height="0.4"/>
	<rect x="38" y="72.3" class="st1" width="34.9" height="0.4"/>
	<rect x="60.9" y="63.2" class="st1" width="0.4" height="9.3"/>
	<path class="st22" d="M373.3,177l-0.1-0.4l-1.9,0.3l2.9,19.4L362,206.7l-12.3-10.4l2.9-18.8l0.1-0.4l-1.9-0.3l-18.1,115.6l-0.1,0.4
		l1.9,0.3l11.1-71l16.3-13.8l16.1,13.7l10.6,70.5l0.1,0.4l1.9-0.3L373.3,177z M346,220.3l3.5-22.6l11.6,9.8L346,220.3z M362.9,207.5
		l11.6-9.8l3.4,22.5L362.9,207.5z"/>
	<path class="st19" d="M319.9,178.9h56.6c3.9,0,7.4-2.3,8.9-5.8l13.1-30c0.8-1.8-0.5-3.8-2.5-3.8c-17,0-33.1,7.6-43.9,20.8h0h-7.9
		c-14.7,0-22.8,10-26.2,15.5C317.2,177,318.2,178.9,319.9,178.9z"/>
	<defs>
		<filter id="Adobe_OpacityMaskFilter" filterUnits="userSpaceOnUse" x="150.3" y="55.2" width="25.1" height="35.4">
			<feFlood  style="flood-color:white;flood-opacity:1" result="back"/>
			<feBlend  in="SourceGraphic" in2="back" mode="normal"/>
		</filter>
	</defs>
	<mask maskUnits="userSpaceOnUse" x="150.3" y="55.2" width="25.1" height="35.4" id="SVGID_3_">
		<g class="st23">
			<defs>
				<filter id="Adobe_OpacityMaskFilter_1_" filterUnits="userSpaceOnUse" x="150.3" y="55.2" width="25.1" height="35.4">
					<feFlood  style="flood-color:white;flood-opacity:1" result="back"/>
					<feBlend  in="SourceGraphic" in2="back" mode="normal"/>
				</filter>
			</defs>
			<mask maskUnits="userSpaceOnUse" x="150.3" y="55.2" width="25.1" height="35.4" id="SVGID_3_">
				<g class="st24">
				</g>
			</mask>
			<linearGradient id="SVGID_4_" gradientUnits="userSpaceOnUse" x1="162.828" y1="62.8027" x2="162.828" y2="123.3677">
				<stop  offset="0" style="stop-color:#FFFFFF"/>
				<stop  offset="1" style="stop-color:#000000"/>
			</linearGradient>
			<path class="st25" d="M173.7,55.2h-21.8c-0.9,0-1.7,0.7-1.7,1.7v32c0,0.9,0.7,1.7,1.7,1.7h21.8c0.9,0,1.7-0.7,1.7-1.7v-32
				C175.4,55.9,174.6,55.2,173.7,55.2z"/>
		</g>
	</mask>
	<linearGradient id="SVGID_5_" gradientUnits="userSpaceOnUse" x1="162.828" y1="62.8027" x2="162.828" y2="123.3677">
		<stop  offset="0" style="stop-color:#49B4C2"/>
		<stop  offset="1" style="stop-color:#FFFFFF"/>
	</linearGradient>
	<path class="st26" d="M173.7,55.2h-21.8c-0.9,0-1.7,0.7-1.7,1.7v32c0,0.9,0.7,1.7,1.7,1.7h21.8c0.9,0,1.7-0.7,1.7-1.7v-32
		C175.4,55.9,174.6,55.2,173.7,55.2z"/>
	<path class="st5" d="M172,56.9h-18.3c-0.9,0-1.7,0.7-1.7,1.7v4.3c0,0.9,0.7,1.7,1.7,1.7H172c0.9,0,1.7-0.7,1.7-1.7v-4.3
		C173.7,57.7,172.9,56.9,172,56.9z"/>
	<g>
		<path class="st7" d="M317.2,20.7l0.6,0L317.2,20.7z"/>
		
			<rect x="317.3" y="20.4" transform="matrix(7.642750e-02 -0.9971 0.9971 7.642750e-02 272.5535 335.6934)" class="st7" width="0.4" height="0.6"/>
	</g>
	<path class="st5" d="M319.1,31.9l4.5-2.8c0,0,0.8,2.8-0.8,4.1C321.1,34.6,319.1,31.9,319.1,31.9z"/>
	<path class="st12" d="M333.6,90.4c9.7-11.4,3.1-31,3.1-31l-14.3,17.7c0,0,0,0,0,0c0,0.3,0,0.5,0,0.8c0,0,0,0.1,0,0.1
		c0,0.3,0,0.5,0,0.8c0.1,2.2,0.9,4.3,1.9,6.2c1.8,2.7,5.1,9.9,5.1,9.9L333.6,90.4z"/>
	<path class="st8" d="M314.2,106.3c-5.1,4-7.6,6.2-25.3,6.5c-17.7,0.3-16.8-3.8-15-13c1.8-9.2,7.9-7.9,10.7-7
		c2.8,0.9,15,0.1,17.8-2.2c2.8-2.3,12-46.5,22.7-47.7c10.7-1.1,13.9,18.2,11.6,27.9C334.5,80.5,319.3,102.2,314.2,106.3z"/>
	<path class="st12" d="M296.3,92.6c0.6,0.3,12.9,5.3,15.3,1.1c2.4-4.1-2.7-5.7-3.6-9.7c-0.9-4,0.2-8.1,0.2-8.1l0-1.4
		c-1.3,7.6-4.6,15.7-5.5,16.5C301.6,92,298.9,92.5,296.3,92.6z"/>
	<path class="st11" d="M333.7,140.4c-1.4-10.4,5.4-16.9,5.5-16.9l0.3,0.3c-0.1,0.1-6.7,6.4-5.3,16.6L333.7,140.4z"/>
	<path class="st11" d="M380,122.5l-0.1-0.2l-43.1,1l0,0.4l43.4-1C380.1,122.7,380,122.6,380,122.5z"/>
	<path class="st12" d="M336.6,57.7c-0.2-2.5-1,1.2-2.7,4.8c-1.7,3.6-10.2,16.1-12.5,26c-2.3,9.9-7.9,18.6-22.2,20.2
		c-14.3,1.6-15.6-7.9-18.3-8.5c-2.6-0.5-5.7,2.2-4.5,7.7c0.5,2.1,1.6,3.4,2.8,4.3c2.3,0.4,5.5,0.6,9.7,0.5
		c17.7-0.3,20.2-2.5,25.3-6.5c5.1-4,20.3-25.8,22.5-35.5C337,69.7,338,60.8,336.6,57.7z"/>
	<rect x="169.4" y="290.8" class="st7" width="58.3" height="1.9"/>
	<rect x="278.8" y="290.8" class="st7" width="26.1" height="1.9"/>
	
		<rect x="291.4" y="273" transform="matrix(0.3903 -0.9207 0.9207 0.3903 -62.3312 453.8738)" class="st7" width="40.2" height="1.9"/>
	
		<rect x="200.8" y="274.8" transform="matrix(0.9279 -0.3729 0.3729 0.9279 -88.7808 94.9289)" class="st7" width="0.4" height="4.4"/>
	
		<rect x="197.9" y="276" transform="matrix(0.9279 -0.3729 0.3729 0.9279 -89.4675 93.9544)" class="st7" width="0.4" height="4.4"/>
	<polygon class="st7" points="207.1,280 204.3,273 204.6,272.9 207.4,279.5 221.4,275.5 221.5,275.8 	"/>
	<path class="st12" d="M335.9,76.7l-0.4-0.1c0.1-0.2,5.1-16.6-2.6-27.5l0.3-0.2C341.1,59.9,336,76.6,335.9,76.7z"/>
	<path class="st7" d="M323.1,21.7c-0.8-1.1-1.7-1.7-2.6-1.8c-0.9-0.1-1.4,0.4-1.5,0.4l-0.3-0.3c0,0,0.7-0.6,1.7-0.5
		c1,0.1,1.9,0.8,2.8,2L323.1,21.7z"/>
	<rect x="152" y="66.7" class="st5" width="21.7" height="0.4"/>
	<rect x="152" y="69.4" class="st5" width="21.7" height="0.4"/>
	<rect x="152" y="72.1" class="st5" width="21.7" height="0.4"/>
	<rect x="152" y="74.8" class="st5" width="21.7" height="0.4"/>
	<rect x="152" y="77.4" class="st5" width="21.7" height="0.4"/>
	<rect x="152" y="80.1" class="st5" width="21.7" height="0.4"/>
	<rect x="152" y="82.8" class="st5" width="21.7" height="0.4"/>
	<rect x="152" y="85.5" class="st5" width="21.7" height="0.4"/>
	<rect x="152" y="88.2" class="st5" width="21.7" height="0.4"/>
	<polygon class="st7" points="304.9,261.2 296.1,261.2 296.1,260.8 304.6,260.8 307.7,251.5 308.1,251.6 	"/>
	<path class="st4" d="M210.8,255.4c3.8,0.9,10.5,2.5,13,6.6l2.1-6.1L210.8,255.4z"/>
	<path class="st4" d="M291.9,251.7c3.7-3.3,8.7-5.8,11.8-4.5l-2.6-5.2L291.9,251.7z"/>
	<path class="st19" d="M273.8,109.8c-1.8-6.5,0.4-12.1,0.5-12.1l0.3,0.2c0,0.1-2.2,5.5-0.4,11.8L273.8,109.8z"/>
	<path class="st19" d="M294.4,83.7c0-0.1-0.1-7.3,6.3-8.4l0.1,0.4c-6,1-5.9,7.9-5.9,8L294.4,83.7z"/>
	<path class="st4" d="M328.8,37.3l2.6-3.5c0,1.6-0.4,3.5-1.2,4.9L328.8,37.3z"/>
	<rect x="295.6" y="266.6" class="st7" width="4.3" height="0.4"/>
	<rect x="295.6" y="269.4" class="st7" width="4.3" height="0.4"/>
	<path class="st11" d="M342.1,123.5c-0.6-7-0.6-6.9-0.6-6.9l0.4,0c0,0.1,0.4,4.6,0.6,6.9L342.1,123.5z"/>
	
		<rect x="344.5" y="116.4" transform="matrix(0.9976 -6.968036e-02 6.968036e-02 0.9976 -7.5147 24.3115)" class="st11" width="0.4" height="6.8"/>
	
		<rect x="354.9" y="116.1" transform="matrix(0.9965 -8.414083e-02 8.414083e-02 0.9965 -8.8069 30.3053)" class="st11" width="0.4" height="7"/>
	
		<rect x="357.6" y="116" transform="matrix(0.9995 -3.022914e-02 3.022914e-02 0.9995 -3.4478 10.8692)" class="st11" width="0.4" height="6.9"/>
	
		<rect x="366.5" y="115.7" transform="matrix(0.9977 -6.715695e-02 6.715695e-02 0.9977 -7.1856 24.8954)" class="st11" width="0.4" height="7.2"/>
	
		<rect x="368.9" y="115.7" transform="matrix(0.9994 -3.368292e-02 3.368292e-02 0.9994 -3.8071 12.4995)" class="st11" width="0.4" height="7.1"/>
	<path class="st8" d="M173.9,114.3c-6.3-1.9-20.7-0.3-24.9,0.9c-4.1,1.2-18.7,1.8-25.3-0.4c-5.8-2-18.3-1.1-20.9-0.9v0.4
		c2.5-0.2,15-1.1,20.8,0.9c6.6,2.2,21.4,1.6,25.5,0.4c4-1.2,18.6-2.7,24.6-0.9c2.8,0.8,4.2,1.8,5,2.5h0.5
		C178.6,116.4,177.1,115.3,173.9,114.3z"/>
	<path class="st8" d="M102.9,115.6v0.4c1.1-0.1,4.8-0.3,8.6-0.2c6,0.1,8.6,0.7,9.7,1.4h0.6C119.3,114.8,105.4,115.5,102.9,115.6z"/>
	<path class="st8" d="M146.2,112.8c-2.2,0.9-6.9,2.5-11.3,2.2c-4.1-0.3-8-1.5-10.1-2.2h-1.1c1.4,0.5,6.2,2.2,11.2,2.6
		c0.4,0,0.8,0,1.1,0c4.8,0,9.8-2,11.2-2.6H146.2z"/>
	<path class="st8" d="M166.5,115.1c-5-0.8-14.3,1.3-17.8,2.2h1.7c4.1-1,11.7-2.5,16-1.8c3.1,0.5,5,1.2,6.1,1.8h0.8
		C172.4,116.6,170.3,115.7,166.5,115.1z"/>
	<path class="st8" d="M199.5,114c-0.8,1.7-5.6,1.9-9.1,2c-0.1,0-0.1,0-0.2,0c-4.5,0-10.4-2.1-13.2-3.2H176c2.2,0.9,9.1,3.5,14.3,3.5
		c0.1,0,0.1,0,0.2,0c5.8-0.1,8.7-0.8,9.4-2.2c0.2-0.4,0.2-0.8,0.1-1.3h-0.4C199.7,113.3,199.7,113.7,199.5,114z"/>
	<defs>
		<filter id="Adobe_OpacityMaskFilter_2_" filterUnits="userSpaceOnUse" x="161.8" y="70.5" width="44.1" height="26.1">
			<feFlood  style="flood-color:white;flood-opacity:1" result="back"/>
			<feBlend  in="SourceGraphic" in2="back" mode="normal"/>
		</filter>
	</defs>
	<mask maskUnits="userSpaceOnUse" x="161.8" y="70.5" width="44.1" height="26.1" id="SVGID_6_">
		<g class="st27">
			<defs>
				<filter id="Adobe_OpacityMaskFilter_3_" filterUnits="userSpaceOnUse" x="161.8" y="70.5" width="44.1" height="26.1">
					<feFlood  style="flood-color:white;flood-opacity:1" result="back"/>
					<feBlend  in="SourceGraphic" in2="back" mode="normal"/>
				</filter>
			</defs>
			<mask maskUnits="userSpaceOnUse" x="161.8" y="70.5" width="44.1" height="26.1" id="SVGID_6_">
				<g class="st28">
				</g>
			</mask>
			<linearGradient id="SVGID_7_" gradientUnits="userSpaceOnUse" x1="183.8019" y1="62.8028" x2="183.8019" y2="123.3675">
				<stop  offset="0" style="stop-color:#FFFFFF"/>
				<stop  offset="1" style="stop-color:#000000"/>
			</linearGradient>
			<path class="st29" d="M204.2,70.5h-40.7c-0.9,0-1.7,0.7-1.7,1.7V95c0,0.9,0.7,1.7,1.7,1.7h40.7c0.9,0,1.7-0.7,1.7-1.7V72.2
				C205.8,71.3,205.1,70.5,204.2,70.5z"/>
		</g>
	</mask>
	<linearGradient id="SVGID_8_" gradientUnits="userSpaceOnUse" x1="183.8019" y1="62.8028" x2="183.8019" y2="123.3675">
		<stop  offset="0" style="stop-color:#49B4C2"/>
		<stop  offset="1" style="stop-color:#FFFFFF"/>
	</linearGradient>
	<path class="st30" d="M204.2,70.5h-40.7c-0.9,0-1.7,0.7-1.7,1.7V95c0,0.9,0.7,1.7,1.7,1.7h40.7c0.9,0,1.7-0.7,1.7-1.7V72.2
		C205.8,71.3,205.1,70.5,204.2,70.5z"/>
	<path class="st5" d="M202.4,72.2h-37.1c-0.6,0-1.1,0.5-1.1,1.1v20.5c0,0.6,0.5,1.1,1.1,1.1h37.1c0.6,0,1.1-0.5,1.1-1.1V73.3
		C203.5,72.7,203,72.2,202.4,72.2z"/>
	<path class="st21" d="M169.9,95c0,0,0.8-6.8,13-6.8c12.2,0,12.5,6.8,12.5,6.8H169.9z"/>
	<path class="st2" d="M189.6,79.9c0,3.7-0.4,7.5-4.1,7.5c-3.7,0-6.4-3.8-6.4-7.5c0-3.7,1.6-6.7,5.3-6.7
		C188.1,73.3,189.6,76.3,189.6,79.9z"/>
	<circle class="st7" cx="182.6" cy="79.7" r="0.6"/>
	<path class="st2" d="M191.2,81.2c-0.2,1-1.1,1.6-1.8,1.4c-0.8-0.2-1.2-1.1-1-2.1c0.2-1,1.1-1.6,1.8-1.4
		C191,79.4,191.5,80.3,191.2,81.2z"/>
	<path class="st7" d="M188.1,79.7c0,0.3-0.3,0.6-0.6,0.6c-0.3,0-0.6-0.3-0.6-0.6c0-0.3,0.3-0.6,0.6-0.6
		C187.9,79.1,188.1,79.4,188.1,79.7z"/>
	<path class="st7" d="M186.7,73.9c0,0-0.6,1.2-2.9,2.1c-2.3,0.9-3.8,1.3-3.8,1.3s-0.1,3.1-0.4,3.5c-0.3,0.4-0.6,0.1-0.6,0.1
		s-1-7,3.3-8c4.4-1,7.1,1.1,7.6,3.4c0.5,2.3-0.3,4-0.3,4S188.9,75,186.7,73.9z"/>
	<polygon class="st7" points="184.6,82 184.5,81.6 185.9,81.4 185.2,80 185.6,79.8 186.5,81.7 	"/>
	<path class="st2" d="M180.7,80.6c0.4,0.9,0.2,1.9-0.6,2.2c-0.7,0.3-1.7-0.1-2.1-1c-0.4-0.9-0.2-1.9,0.6-2.2
		C179.4,79.3,180.3,79.7,180.7,80.6z"/>
	<polygon class="st7" points="212.1,113.1 211.8,112.8 229,95.1 229.2,95.4 	"/>
	<path class="st19" d="M219,116c2.1,0.1,4.9-0.3,7.8-0.6c6.7-0.8,14.1-1.8,17.3,1.9h0.5c-3.2-4.1-11-3.1-17.9-2.3
		c-2.9,0.4-5.6,0.7-7.7,0.6c-4.8-0.2-9.5-1.7-12.1-2.7h-1.1C208.2,113.8,213.5,115.7,219,116z"/>
	<path class="st19" d="M211.6,116.2c-2.4-0.7-4.6-1.4-5.7-1.4c0,0,0,0,0,0c-0.6,0-1,0.2-1.3,0.6c-0.4,0.5-0.5,1.2-0.6,1.8h0.4
		c0-0.5,0.1-1.2,0.5-1.6c0.3-0.3,0.6-0.4,1-0.4c0,0,0,0,0,0c1.1,0,3.3,0.7,5.6,1.4c0.7,0.2,1.3,0.4,2,0.6h1.4
		C213.8,116.9,212.7,116.6,211.6,116.2z"/>
	<path class="st19" d="M219.7,114.7c3.3,0,6.3-1.1,8.1-1.9h-1c-1.8,0.7-4.4,1.5-7.1,1.5c-2.3,0-4.1-0.7-5.4-1.5h-0.7
		C214.9,113.8,216.9,114.7,219.7,114.7z"/>
	<path class="st19" d="M257.8,116.5c8.4,0,14.1-2.5,16.3-3.6h-0.9c-2.5,1.2-7.9,3.3-15.4,3.3c-7.2,0-13.7-2-17.1-3.3h-1.1
		C242.8,114.1,249.8,116.5,257.8,116.5z"/>
	<path class="st19" d="M266.1,112.8c-1.5,0.8-4.8,2.2-9.3,2c-3.5-0.2-5.7-1.2-7-2H249c1.2,0.9,3.6,2.2,7.7,2.4c0.4,0,0.7,0,1,0
		c4.8,0,8-1.8,9.1-2.4H266.1z"/>
	<g>
		<path class="st19" d="M304.8,112.8c-0.9,1.1-2.7,3-4.8,4.4h0.7c2.1-1.5,3.8-3.4,4.6-4.4H304.8z"/>
		<path class="st19" d="M289.4,116.9c-2.5-1.1-5.4-2.4-9.1-2.7c-5.3-0.5-11.2,1.8-13.9,3h1c2.9-1.3,8.1-3.1,12.9-2.7
			c3.7,0.4,6.5,1.6,8.9,2.7h1C289.9,117.1,289.7,117,289.4,116.9z"/>
	</g>
	<path class="st19" d="M299.2,112.8c-0.6,0.9-1.6,2.2-2.6,2.7c-1.6,0.7-4.5,0.1-6.6-1.4c-0.6-0.5-1.7-0.9-2.9-1.2h-1.5
		c1.7,0.4,3.3,0.9,4.1,1.6c1.5,1.2,3.6,1.8,5.2,1.8c0.7,0,1.3-0.1,1.8-0.3c1.2-0.5,2.3-2.2,2.9-3.1H299.2z"/>
	<path class="st19" d="M326.4,116c-1.5-0.3-2.9-0.7-4.2-1.1c-2.9-0.9-5.8-1.8-10-1.2c-3.9,0.6-6.8,2.3-8.5,3.6h0.7
		c1.7-1.2,4.3-2.6,7.9-3.2c4.1-0.6,6.9,0.2,9.8,1.2c1.4,0.4,2.8,0.9,4.4,1.2V116z"/>
	<path class="st11" d="M360.9,131.3c-4.2,0-7.6-0.3-7.7-0.3l0-0.4c0.1,0,11.2,1,18-0.6l0.1,0.4C368.3,131.1,364.4,131.3,360.9,131.3
		z"/>
	<path class="st11" d="M383.7,128.5c-2.3,1-5.3,0.9-5.6,0.9l0,0.2l-0.2,0.1l0.1,0.1c0,0,0.3,0,0.8,0c1.1,0,3.3-0.1,5.1-0.9
		C383.8,128.8,383.8,128.7,383.7,128.5z"/>
	<path class="st19" d="M360.8,176.8l-0.1-0.8l-2.7,0.3l2.3,19.3l-13.4,11.1l-12.3-10.2l3-20.2l-2.7-0.4l-17.5,116.7l2.8,0.1
		l10.7-71.2l16.1-13.3l16.7,13.8l8.6,70.6l2.8,0L360.8,176.8z M334.4,198l11.6,9.6l-14.9,12.3L334.4,198z M363.3,220.4l-15.5-12.9
		l12.7-10.5L363.3,220.4z"/>
	<path class="st5" d="M77,216.8H40.3c-0.7,7.4-20.1,28.8-20.2,47.7c0,21.8,14.1,28.2,14.1,28.2h49.4c0,0,16.1-6.4,16-28.2
		C99.7,245.7,77.7,224.2,77,216.8z"/>
	<path class="st1" d="M83.7,293l-58.4,0c-0.2-0.1-16.2-6.7-16.2-28.4c0-12,9.1-25.3,15.7-34.9c3.9-5.7,7-10.2,7.2-12.8l0-0.2h45
		l0,0.2c0.3,2.6,3.3,7.1,7.2,12.8c6.6,9.6,15.6,22.9,15.7,34.9c0,11.3-4.4,18.5-8.1,22.4C87.8,291.3,83.7,292.9,83.7,293L83.7,293z
		 M25.4,292.6h58.2c0.8-0.3,16-7,15.9-28c0-11.9-9-25.1-15.6-34.7c-3.8-5.6-6.9-10.1-7.3-12.8H32.4c-0.4,2.8-3.4,7.2-7.3,12.8
		c-6.6,9.6-15.6,22.8-15.6,34.7C9.4,285.5,24.6,292.2,25.4,292.6z"/>
	<path class="st31" d="M74.8,218.3h-6.6c-0.1,7.2,8.4,28.4,8.4,47c0,21.5-9.4,27.8-9.4,27.8h8.6c0,0,14-6.3,14-27.8
		C89.8,246.7,74.9,225.6,74.8,218.3z"/>
	<defs>
		<filter id="Adobe_OpacityMaskFilter_4_" filterUnits="userSpaceOnUse" x="184.2" y="58.1" width="21.6" height="6.4">
			<feFlood  style="flood-color:white;flood-opacity:1" result="back"/>
			<feBlend  in="SourceGraphic" in2="back" mode="normal"/>
		</filter>
	</defs>
	<mask maskUnits="userSpaceOnUse" x="184.2" y="58.1" width="21.6" height="6.4" id="SVGID_9_">
		<g class="st32">
			<defs>
				<filter id="Adobe_OpacityMaskFilter_5_" filterUnits="userSpaceOnUse" x="184.2" y="58.1" width="21.6" height="6.4">
					<feFlood  style="flood-color:white;flood-opacity:1" result="back"/>
					<feBlend  in="SourceGraphic" in2="back" mode="normal"/>
				</filter>
			</defs>
			<mask maskUnits="userSpaceOnUse" x="184.2" y="58.1" width="21.6" height="6.4" id="SVGID_9_">
				<g class="st33">
				</g>
			</mask>
			<linearGradient id="SVGID_10_" gradientUnits="userSpaceOnUse" x1="195.0179" y1="45.0216" x2="195.0179" y2="112.2143">
				<stop  offset="0" style="stop-color:#FFFFFF"/>
				<stop  offset="1" style="stop-color:#000000"/>
			</linearGradient>
			<path class="st34" d="M204.2,58.1h-18.3c-0.9,0-1.7,0.7-1.7,1.7v3.1c0,0.9,0.7,1.7,1.7,1.7h18.3c0.9,0,1.7-0.7,1.7-1.7v-3.1
				C205.8,58.9,205.1,58.1,204.2,58.1z"/>
		</g>
	</mask>
	<linearGradient id="SVGID_11_" gradientUnits="userSpaceOnUse" x1="195.0179" y1="45.0216" x2="195.0179" y2="112.2143">
		<stop  offset="0" style="stop-color:#49B4C2"/>
		<stop  offset="1" style="stop-color:#FFFFFF"/>
	</linearGradient>
	<path class="st35" d="M204.2,58.1h-18.3c-0.9,0-1.7,0.7-1.7,1.7v3.1c0,0.9,0.7,1.7,1.7,1.7h18.3c0.9,0,1.7-0.7,1.7-1.7v-3.1
		C205.8,58.9,205.1,58.1,204.2,58.1z"/>
	<path class="st8" d="M127.5,107.1c-3.4,0-5.9-4.6-5.9-7.7c0-0.7,0.1-1.7,0.8-2.3c0.9-0.9,2.2-0.8,4.5-0.8c0.5,0,1,0,1.6,0
		c3,0,4.8,2.2,4.8,5.9C133.4,105.2,131.1,107.1,127.5,107.1z M125.7,97.8c-1.1,0-1.9,0.1-2.2,0.4c-0.2,0.2-0.3,0.6-0.3,1.2
		c0,2.6,2.1,6.1,4.3,6.1c1,0,4.3-0.2,4.3-3.4c0-1.3-0.3-4.3-3.3-4.3c-0.6,0-1.2,0-1.7,0C126.5,97.8,126.1,97.8,125.7,97.8z"/>
	
		<rect x="253.6" y="74.6" transform="matrix(0.1573 -0.9875 0.9875 0.1573 139.4657 314.1416)" class="st5" width="0.4" height="1.5"/>
	<path class="st4" d="M249.1,103.6l-0.4-0.1c0-0.1,0.7-2.3,6.9-1.5l0,0.4C249.8,101.6,249.1,103.6,249.1,103.6z"/>
	<path class="st4" d="M248.9,100.7l-0.3-0.3c0.1-0.1,2.5-2.5,6.8-1.5l-0.1,0.4C251.3,98.4,248.9,100.7,248.9,100.7z"/>
	<path class="st4" d="M248.3,97.1l-0.2-0.3c0.2-0.2,4.9-3.9,7.5-2.9l-0.1,0.4C253,93.3,248.3,97,248.3,97.1z"/>
	<polygon class="st36" points="353.5,34.8 351.5,31.4 355.5,34.3 	"/>
	<path class="st19" d="M298.7,92.6c-0.6,0-0.9-0.1-0.9-0.1l0.1-0.4c0.2,0,4.2,0.7,5.9-2.9c1.8-3.8,5-17.3,5.1-17.4l0.4,0.1
		c-0.1,0.6-3.3,13.7-5.1,17.5C302.7,92.2,300.1,92.6,298.7,92.6z"/>
	<rect x="9.5" y="293.5" class="st1" width="397.9" height="0.3"/>
	<rect x="157.5" y="110.2" class="st7" width="56.9" height="0.4"/>
	<polygon class="st12" points="137.4,112.8 145.9,112.8 145.9,109.1 137.4,109.1 	"/>
	<path class="st8" d="M155.5,94h-27.7c0,9.9,4.5,17.9,13.8,17.9S155.5,103.9,155.5,94z"/>
	<path class="st12" d="M153.8,95.3h-7c0,9.1-8.6,17.3-5.1,17.3C145.2,112.6,153.8,104.5,153.8,95.3z"/>
	<path class="st37" d="M140.7,92.8c0,0,3.1-1.6,1.7-4c-1.4-2.4-1.6-4.6-1.2-5.2c0,0-2.4,0.7-1.8,3.5C140,89.8,141.4,89.8,140.7,92.8
		z"/>
	<path class="st5" d="M132.4,105.2c-2.1-3.3-2.3-7.5-2.3-7.5l0.4,0c0,0,0.2,4.1,2.2,7.3L132.4,105.2z"/>
	<path class="st12" d="M155.3,97c0-0.1,0-0.3,0-0.4h-27.4c0,0.1,0,0.3,0,0.4H155.3z"/>
	<defs>
		<filter id="Adobe_OpacityMaskFilter_6_" filterUnits="userSpaceOnUse" x="195" y="65.9" width="21.6" height="12.8">
			<feFlood  style="flood-color:white;flood-opacity:1" result="back"/>
			<feBlend  in="SourceGraphic" in2="back" mode="normal"/>
		</filter>
	</defs>
	<mask maskUnits="userSpaceOnUse" x="195" y="65.9" width="21.6" height="12.8" id="SVGID_12_">
		<g class="st38">
			<defs>
				<filter id="Adobe_OpacityMaskFilter_7_" filterUnits="userSpaceOnUse" x="195" y="65.9" width="21.6" height="12.8">
					<feFlood  style="flood-color:white;flood-opacity:1" result="back"/>
					<feBlend  in="SourceGraphic" in2="back" mode="normal"/>
				</filter>
			</defs>
			<mask maskUnits="userSpaceOnUse" x="195" y="65.9" width="21.6" height="12.8" id="SVGID_12_">
				<g class="st39">
				</g>
			</mask>
			<linearGradient id="SVGID_13_" gradientUnits="userSpaceOnUse" x1="205.8308" y1="45.0213" x2="205.8308" y2="112.2154">
				<stop  offset="0" style="stop-color:#FFFFFF"/>
				<stop  offset="1" style="stop-color:#000000"/>
			</linearGradient>
			<path class="st40" d="M215,65.9h-18.3c-0.9,0-1.7,0.7-1.7,1.7V77c0,0.9,0.7,1.7,1.7,1.7H215c0.9,0,1.7-0.7,1.7-1.7v-9.5
				C216.6,66.6,215.9,65.9,215,65.9z"/>
		</g>
	</mask>
	<linearGradient id="SVGID_14_" gradientUnits="userSpaceOnUse" x1="205.8308" y1="45.0213" x2="205.8308" y2="112.2154">
		<stop  offset="0" style="stop-color:#49B4C2"/>
		<stop  offset="1" style="stop-color:#FFFFFF"/>
	</linearGradient>
	<path class="st41" d="M215,65.9h-18.3c-0.9,0-1.7,0.7-1.7,1.7V77c0,0.9,0.7,1.7,1.7,1.7H215c0.9,0,1.7-0.7,1.7-1.7v-9.5
		C216.6,66.6,215.9,65.9,215,65.9z"/>
	<path class="st5" d="M186.5,83c0,0.3-0.6,0.9-1.2,0.9c-0.7,0-1.2-0.6-1.2-0.9c0-0.3,0.6-0.1,1.2-0.1
		C185.9,82.9,186.5,82.7,186.5,83z"/>
	<path class="st2" d="M179.3,88.5c0-0.2,0.4-6.1,0.4-6.1l5.1,3.3l1,3.4C183.1,90.2,180.9,90.2,179.3,88.5z"/>
	<path class="st7" d="M181.4,78.9l-0.2-0.3c0,0,1.1-0.8,2.9-0.1l-0.1,0.4C182.4,78.3,181.4,78.9,181.4,78.9z"/>
	<path class="st7" d="M186.2,78.9l-0.2-0.3c0,0,1.1-0.8,2.9-0.1l-0.1,0.4C187.2,78.3,186.2,78.9,186.2,78.9z"/>
	<polygon class="st4" points="336,24.3 333.4,22.5 334.8,19.7 335.1,19.8 333.9,22.4 336.3,24 	"/>
	<path class="st12" d="M373.6,76.2c-0.8-3-0.7-7.2-0.5-11.5c-0.4,1.6-1,3.2-1.7,4.9c-4.1,9.8-12,17.1-3.3,14.9
		c2.7-0.7,5.1-1.8,7.1-3C374.6,79.6,374.1,77.8,373.6,76.2z"/>
	<path class="st12" d="M371.3,95.5c-0.2,1.5-1.2,9.6-8.5,8.7c-7.3-0.9-19.3-8.8-19.2-10.3c0.2-1.5,6.5,1.7,13.8,2.6
		C364.8,97.4,371.5,94,371.3,95.5z"/>
	<path class="st4" d="M318.1,29.7c-0.1,0.4-0.5,0.6-2.1,0.4c-1.5-0.2-2.7-0.7-2.7-1.2c0.1-0.4,0.7,0,2.2,0.2
		C317.1,29.3,318.1,29.2,318.1,29.7z"/>
	<path class="st3" d="M328.8,24c1.1,0.8,1.4,1.6,0.5,2.9c-0.9,1.3-2.9,2.1-4,1.4s-0.2-1.8,0.7-3.1C326.9,23.9,327.8,23.2,328.8,24z"
		/>
	<path class="st12" d="M294.1,282.6c0,0,5.7-2.4,5.9-4.9c0.2-2.5-5.5,0.7-5.5,0.7L294.1,282.6z"/>
	<path class="st19" d="M311.4,108.9l-0.2-0.3c0.1-0.1,7.4-5.6,11.4-12.2c1.2-2,2.8-4.4,4.5-7c3.8-5.7,8.1-12.2,9-15.9
		c1.3-5.2,1.2-11.5,0.9-14.5l0.4,0c0.3,3,0.4,9.4-0.9,14.6c-0.9,3.8-5.2,10.3-9,16c-1.7,2.5-3.3,4.9-4.5,7
		C318.9,103.3,311.4,108.9,311.4,108.9z"/>
	<path class="st19" d="M330,96.7l-0.4,0c0,0,0.2-4.3-2.3-7.4l0.3-0.2C330.3,92.3,330.1,96.5,330,96.7z"/>
	<path class="st8" d="M321.7,175.5l-0.3-0.2c0-0.1,4-7.5,11.7-10.9c7.3-3.2,20.1-2.5,21.4-2.4c0.8-0.9,7.9-9.5,18-14.9
		c10.6-5.7,24.7-5.4,24.8-5.4l0,0.4c-0.1,0-14.1-0.3-24.6,5.3c-10.6,5.6-17.9,14.8-18,14.9l-0.1,0.1l-0.1,0c-0.1,0-13.8-1-21.3,2.4
		C325.7,168.2,321.7,175.4,321.7,175.5z"/>
	<path class="st42" d="M396.6,147.4c-30.2,2.2-40.8,24.6-43.7,31.5h23.6c3.9,0,7.4-2.3,8.9-5.8L396.6,147.4z"/>
	<path class="st11" d="M257.1,192.8l-0.4,0c0,0,0.1-2.6,0.8-5.4c1-3.8,2.5-6.2,4.5-7.1c3.9-1.7,12.1-2,17-2.1c1.3,0,2.3-0.1,2.9-0.1
		l0,0.4c-0.7,0.1-1.7,0.1-2.9,0.1c-4.9,0.2-13,0.5-16.8,2.1C257.6,182.7,257.1,192.7,257.1,192.8z"/>
	<path class="st10" d="M317.7,133.9c9,0,9.2-4.7,8.4-7.6c-9.9,2.6-25.5,7-40.7,12.5C292.1,137.2,307.7,133.9,317.7,133.9z"/>
</g>
</svg>
